<svg width="96" height="24" viewBox="0 0 96 24" fill="none" xmlns="http://www.w3.org/2000/svg">
<path d="M39.9023 15.5098H35.5361L34.7061 18H32.0581L36.5571 5.91406H38.8647L43.3887 18H40.7407L39.9023 15.5098ZM36.2085 13.4927H39.23L37.7109 8.96875L36.2085 13.4927ZM48.0952 16.2319C48.5379 16.2319 48.8976 16.1102 49.1743 15.8667C49.451 15.6232 49.5949 15.2995 49.606 14.8955H51.8555C51.8499 15.5042 51.6839 16.0632 51.3574 16.5723C51.0309 17.0758 50.5827 17.4688 50.0127 17.751C49.4482 18.0277 48.8229 18.166 48.1367 18.166C46.8529 18.166 45.8402 17.7593 45.0986 16.9458C44.3571 16.1268 43.9863 14.9979 43.9863 13.5591V13.4014C43.9863 12.0179 44.3543 10.9139 45.0903 10.0894C45.8263 9.26481 46.8363 8.85254 48.1201 8.85254C49.2435 8.85254 50.1427 9.1735 50.8179 9.81543C51.4985 10.4518 51.8444 11.3013 51.8555 12.3638H49.606C49.5949 11.8989 49.451 11.5226 49.1743 11.2349C48.8976 10.9416 48.5324 10.7949 48.0786 10.7949C47.5197 10.7949 47.0964 10.9997 46.8086 11.4092C46.5264 11.8132 46.3853 12.4717 46.3853 13.3848V13.6338C46.3853 14.5579 46.5264 15.222 46.8086 15.626C47.0908 16.0299 47.5197 16.2319 48.0952 16.2319ZM56.9604 16.2319C57.4032 16.2319 57.7629 16.1102 58.0396 15.8667C58.3162 15.6232 58.4601 15.2995 58.4712 14.8955H60.7207C60.7152 15.5042 60.5492 16.0632 60.2227 16.5723C59.8962 17.0758 59.4479 17.4688 58.8779 17.751C58.3135 18.0277 57.6882 18.166 57.002 18.166C55.7181 18.166 54.7054 17.7593 53.9639 16.9458C53.2223 16.1268 52.8516 14.9979 52.8516 13.5591V13.4014C52.8516 12.0179 53.2196 10.9139 53.9556 10.0894C54.6916 9.26481 55.7015 8.85254 56.9854 8.85254C58.1087 8.85254 59.008 9.1735 59.6831 9.81543C60.3638 10.4518 60.7096 11.3013 60.7207 12.3638H58.4712C58.4601 11.8989 58.3162 11.5226 58.0396 11.2349C57.7629 10.9416 57.3976 10.7949 56.9438 10.7949C56.3849 10.7949 55.9616 10.9997 55.6738 11.4092C55.3916 11.8132 55.2505 12.4717 55.2505 13.3848V13.6338C55.2505 14.5579 55.3916 15.222 55.6738 15.626C55.9561 16.0299 56.3849 16.2319 56.9604 16.2319ZM61.7168 13.4263C61.7168 12.5353 61.8883 11.7412 62.2314 11.0439C62.5745 10.3467 63.0671 9.80713 63.709 9.42529C64.3564 9.04346 65.1063 8.85254 65.9585 8.85254C67.1704 8.85254 68.1582 9.22331 68.9219 9.96484C69.6911 10.7064 70.12 11.7135 70.2085 12.9863L70.2251 13.6006C70.2251 14.9785 69.8405 16.0853 69.0713 16.9209C68.3021 17.751 67.27 18.166 65.9751 18.166C64.6802 18.166 63.6453 17.751 62.8706 16.9209C62.1014 16.0908 61.7168 14.9619 61.7168 13.5342V13.4263ZM64.1157 13.6006C64.1157 14.4528 64.2762 15.1058 64.5972 15.5596C64.9181 16.0078 65.3774 16.2319 65.9751 16.2319C66.5562 16.2319 67.0099 16.0106 67.3364 15.5679C67.6629 15.1196 67.8262 14.4058 67.8262 13.4263C67.8262 12.5907 67.6629 11.9432 67.3364 11.4839C67.0099 11.0246 66.5506 10.7949 65.9585 10.7949C65.3719 10.7949 64.9181 11.0246 64.5972 11.4839C64.2762 11.9377 64.1157 12.6432 64.1157 13.6006ZM77.0815 17.0869C76.4894 17.8063 75.6704 18.166 74.6245 18.166C73.6616 18.166 72.9256 17.8893 72.4165 17.3359C71.9129 16.7826 71.6556 15.9718 71.6445 14.9038V9.01855H74.0435V14.8208C74.0435 15.756 74.4696 16.2236 75.3218 16.2236C76.1353 16.2236 76.6942 15.9414 76.9985 15.377V9.01855H79.4058V18H77.1479L77.0815 17.0869ZM83.4233 9.01855L83.498 10.0562C84.14 9.25374 85.0005 8.85254 86.0796 8.85254C87.0314 8.85254 87.7397 9.132 88.2046 9.69092C88.6694 10.2498 88.9074 11.0854 88.9185 12.1978V18H86.5195V12.2559C86.5195 11.7467 86.4089 11.3787 86.1875 11.1519C85.9661 10.9194 85.5981 10.8032 85.0835 10.8032C84.4084 10.8032 83.902 11.091 83.5645 11.6665V18H81.1655V9.01855H83.4233ZM93.6167 6.81055V9.01855H95.1523V10.7783H93.6167V15.2607C93.6167 15.5928 93.6803 15.8307 93.8076 15.9746C93.9349 16.1185 94.1784 16.1904 94.5381 16.1904C94.8037 16.1904 95.0389 16.1711 95.2437 16.1323V17.9502C94.7733 18.0941 94.2891 18.166 93.791 18.166C92.1087 18.166 91.251 17.3166 91.2178 15.6177V10.7783H89.9062V9.01855H91.2178V6.81055H93.6167Z" fill="white"/>
<path fill-rule="evenodd" clip-rule="evenodd" d="M12 2C6.48 2 2 6.48 2 12C2 17.52 6.48 22 12 22C17.52 22 22 17.52 22 12C22 6.48 17.52 2 12 2ZM7.07 18.28C7.5 17.38 10.12 16.5 12 16.5C13.88 16.5 16.51 17.38 16.93 18.28C15.57 19.36 13.86 20 12 20C10.14 20 8.43 19.36 7.07 18.28ZM18.36 16.83C16.93 15.09 13.46 14.5 12 14.5C10.54 14.5 7.07 15.09 5.64 16.83C4.62 15.49 4 13.82 4 12C4 7.59 7.59 4 12 4C16.41 4 20 7.59 20 12C20 13.82 19.38 15.49 18.36 16.83ZM12 6C10.06 6 8.5 7.56 8.5 9.5C8.5 11.44 10.06 13 12 13C13.94 13 15.5 11.44 15.5 9.5C15.5 7.56 13.94 6 12 6ZM12 11C11.17 11 10.5 10.33 10.5 9.5C10.5 8.67 11.17 8 12 8C12.83 8 13.5 8.67 13.5 9.5C13.5 10.33 12.83 11 12 11Z" fill="white"/>
<mask id="mask0" mask-type="alpha" maskUnits="userSpaceOnUse" x="2" y="2" width="20" height="20">
<path fill-rule="evenodd" clip-rule="evenodd" d="M12 2C6.48 2 2 6.48 2 12C2 17.52 6.48 22 12 22C17.52 22 22 17.52 22 12C22 6.48 17.52 2 12 2ZM7.07 18.28C7.5 17.38 10.12 16.5 12 16.5C13.88 16.5 16.51 17.38 16.93 18.28C15.57 19.36 13.86 20 12 20C10.14 20 8.43 19.36 7.07 18.28ZM18.36 16.83C16.93 15.09 13.46 14.5 12 14.5C10.54 14.5 7.07 15.09 5.64 16.83C4.62 15.49 4 13.82 4 12C4 7.59 7.59 4 12 4C16.41 4 20 7.59 20 12C20 13.82 19.38 15.49 18.36 16.83ZM12 6C10.06 6 8.5 7.56 8.5 9.5C8.5 11.44 10.06 13 12 13C13.94 13 15.5 11.44 15.5 9.5C15.5 7.56 13.94 6 12 6ZM12 11C11.17 11 10.5 10.33 10.5 9.5C10.5 8.67 11.17 8 12 8C12.83 8 13.5 8.67 13.5 9.5C13.5 10.33 12.83 11 12 11Z" fill="white"/>
</mask>
<g mask="url(#mask0)">
</g>
</svg>
