<svg width="108" height="24" viewBox="0 0 108 24" fill="none" xmlns="http://www.w3.org/2000/svg">
<g clip-path="url(#clip0)">
<path d="M8.15625 1.25L14 17.75L19.8125 1.25H25.9688V24H21.2656V17.7812L21.7344 7.04688L15.5938 24H12.375L6.25 7.0625L6.71875 17.7812V24H2.03125V1.25H8.15625Z" fill="white"/>
<path d="M52.5312 24H47.8438L38.7188 9.03125V24H34.0312V1.25H38.7188L47.8594 16.25V1.25H52.5312V24Z" fill="white"/>
<path d="M77.1562 5.04688H70.1875V24H65.5V5.04688H58.625V1.25H77.1562V5.04688Z" fill="white"/>
<path d="M102.531 24H97.8438L88.7188 9.03125V24H84.0312V1.25H88.7188L97.8594 16.25V1.25H102.531V24Z" fill="white"/>
</g>
<defs>
<clipPath id="clip0">
<rect width="108" height="24" fill="white"/>
</clipPath>
</defs>
</svg>
